<svg width="41" height="40" viewBox="0 0 41 40" fill="none" xmlns="http://www.w3.org/2000/svg">
<rect x="0.5" y="0.5" width="39" height="39" rx="19.5" fill="#EBEBEB" stroke="#EBEBEB"/>
<path fill-rule="evenodd" clip-rule="evenodd" d="M28 18.9999H16.135L19.768 14.6399C20.122 14.2159 20.064 13.5849 19.64 13.2319C19.215 12.8779 18.585 12.9359 18.232 13.3599L13.232 19.3599C13.193 19.4069 13.173 19.4619 13.144 19.5139C13.12 19.5559 13.091 19.5919 13.073 19.6379C13.028 19.7529 13.001 19.8739 13.001 19.9959C13.001 19.9969 13 19.9989 13 19.9999C13 20.0009 13.001 20.0029 13.001 20.0039C13.001 20.1259 13.028 20.2469 13.073 20.3619C13.091 20.4079 13.12 20.4439 13.144 20.4859C13.173 20.5379 13.193 20.5929 13.232 20.6399L18.232 26.6399C18.43 26.8769 18.714 26.9999 19 26.9999C19.226 26.9999 19.453 26.9239 19.64 26.7679C20.064 26.4149 20.122 25.7839 19.768 25.3599L16.135 20.9999H28C28.552 20.9999 29 20.5519 29 19.9999C29 19.4479 28.552 18.9999 28 18.9999Z" fill="#222B45"/>
</svg>
