<svg width="30" height="44" viewBox="0 0 30 44" fill="none" xmlns="http://www.w3.org/2000/svg">
<path fill-rule="evenodd" clip-rule="evenodd" d="M15.3161 0.668895C17.9062 1.12199 20.0285 3.02073 20.8095 5.58352C21.4291 7.68367 21.0388 9.9594 19.7572 11.7193C18.4756 13.4792 16.4539 14.5156 14.3065 14.5135C11.1715 14.4973 8.43861 12.331 7.64525 9.23307C6.94854 5.99684 8.52879 2.69735 11.4578 1.27272C11.9959 1.01863 12.5787 0.86446 13.1418 0.663574L15.3161 0.668895Z" fill="#4893D8"/>
<path fill-rule="evenodd" clip-rule="evenodd" d="M3.84427 41.5031C3.84427 39.9861 3.80159 38.7178 3.87446 37.4571C3.96619 37.0901 4.20135 36.7776 4.52497 36.5928C6.16127 35.5362 7.15487 33.6984 7.15866 31.7211C7.16246 29.7439 6.17592 27.902 4.54371 26.839C4.21698 26.6602 3.9757 26.3531 3.87551 25.9885C3.80161 24.6873 3.84428 23.3787 3.84428 22.0296C8.1366 21.3726 11.6889 22.3783 14.5356 25.76C17.1969 21.9116 21.0698 21.85 25.2039 22.0392C25.2039 23.4265 25.2299 24.7638 25.181 26.097C25.115 26.3935 24.9379 26.6519 24.6877 26.8167C23.086 27.8963 22.1217 29.7248 22.1205 31.6849C22.1192 33.645 23.0811 35.4749 24.6814 36.5566C24.9518 36.7538 25.1324 37.0545 25.1821 37.3901C25.2351 38.7381 25.206 40.0893 25.206 41.6286C21.2592 40.472 17.5217 40.2583 14.3919 43.6431C11.3683 40.7473 7.82019 40.4496 3.84427 41.5031Z" fill="#4893D8"/>
<path fill-rule="evenodd" clip-rule="evenodd" d="M28.0102 26.7113C26.8653 26.7549 26.5531 26.1436 26.6218 25.0391C26.704 23.7315 26.6312 22.4133 26.6218 21.0993C26.588 20.9703 26.5387 20.846 26.475 20.7294C22.2264 20.5167 17.9174 20.1414 14.4963 23.7368C14.0404 23.3701 13.6366 23.0373 13.2265 22.7163C10.2216 20.3626 6.75156 20.3329 3.22631 20.6964C2.96715 20.723 2.58933 21.2577 2.56019 21.5831C2.44952 22.6864 2.42759 23.7972 2.49463 24.9042C2.58309 26.1522 2.13969 26.8176 0.869894 26.874C0.869894 25.4059 0.793916 23.9293 0.886553 22.4643C0.924796 19.9143 2.94546 17.8598 5.44222 17.8325C11.6704 17.7166 17.9029 17.7411 24.1332 17.7708C25.9838 18.0159 27.5009 19.3893 27.9613 21.2364C28.095 23.0583 28.1114 24.8872 28.0102 26.7113H28.0102Z" fill="#4893D8"/>
<path fill-rule="evenodd" clip-rule="evenodd" d="M0 31.4186C0.132738 30.7714 0.319379 30.1369 0.557889 29.5221C0.917861 28.4353 1.94375 27.7277 3.06521 27.7925C4.27706 27.8572 5.28646 28.7641 5.50385 29.9835C5.71136 31.1309 5.69933 32.3085 5.46845 33.4512C5.21417 34.6996 4.1568 35.6083 2.9091 35.6508C1.62823 35.557 0.567449 34.5989 0.319538 33.312C0.169647 32.7719 0.126989 32.1989 0 31.4186Z" fill="#4893D8"/>
<path fill-rule="evenodd" clip-rule="evenodd" d="M29.2191 31.9884C29.1275 32.6513 28.9637 33.3017 28.731 33.9275C28.3399 34.954 27.3749 35.6325 26.2965 35.639C25.2202 35.612 24.2732 34.9058 23.9203 33.8669C23.3201 32.5527 23.2918 31.0407 23.8422 29.7039C24.2388 28.4985 25.3726 27.7102 26.616 27.7755C27.8454 28.0769 28.7969 29.0711 29.064 30.3333C29.141 30.7744 29.1514 31.2273 29.2191 31.9884Z" fill="#4893D8"/>
</svg>
