<svg width="42" height="44" viewBox="0 0 42 44" fill="none" xmlns="http://www.w3.org/2000/svg">
<path d="M21.7234 22.1898L22.363 12.8667H19.2698L19.9093 22.1898H21.7234Z" fill="#4893D8"/>
<path d="M20.8164 5.99805C12.5257 5.99805 5.7807 12.9967 5.7807 21.5992C5.7807 30.2018 12.5257 37.2004 20.8164 37.2004C29.1072 37.2004 35.8521 30.2018 35.8521 21.5992C35.8521 12.9967 29.1072 5.99805 20.8164 5.99805ZM20.8164 33.5378C18.7932 33.5378 17.1471 31.8299 17.1471 29.7305C17.1471 27.6312 18.7932 25.9233 20.8164 25.9233C22.8397 25.9233 24.4857 27.6312 24.4857 29.7305C24.4857 31.8299 22.8397 33.5378 20.8164 33.5378ZM23.9955 24.721H17.6375L16.6507 10.3356H24.9821L23.9955 24.721Z" fill="#4893D8"/>
<path d="M20.8164 31.0066C21.4956 31.0066 22.0462 30.4353 22.0462 29.7305C22.0462 29.0257 21.4956 28.4543 20.8164 28.4543C20.1371 28.4543 19.5865 29.0257 19.5865 29.7305C19.5865 30.4353 20.1371 31.0066 20.8164 31.0066Z" fill="#4893D8"/>
<path d="M20.8163 0C9.31978 0 0 9.67027 0 21.5992C0 33.5281 9.31978 43.1983 20.8163 43.1983C32.3129 43.1983 41.6327 33.5281 41.6327 21.5992C41.6327 9.67027 32.3129 0 20.8163 0ZM33.1732 34.4207C29.8725 37.8455 25.4841 39.7315 20.8163 39.7315C16.1485 39.7315 11.7602 37.8455 8.45956 34.4207C5.15887 30.9959 3.34118 26.4424 3.34118 21.5992C3.34118 16.7559 5.15887 12.2024 8.45956 8.77762C11.7602 5.35288 16.1485 3.46684 20.8163 3.46684C25.4841 3.46684 29.8725 5.35288 33.1732 8.77762C36.4738 12.2024 38.2915 16.7559 38.2915 21.5992C38.2915 26.4424 36.4738 30.9959 33.1732 34.4207Z" fill="#4893D8"/>
</svg>
