<svg width="21" height="21" viewBox="0 0 21 21" fill="none" xmlns="http://www.w3.org/2000/svg">
<path fill-rule="evenodd" clip-rule="evenodd" d="M10.3616 1C14.8304 0.99785 18.6782 4.15297 19.5516 8.53554C20.4249 12.9181 18.0805 17.3072 13.9523 19.0183C9.82412 20.7293 5.06216 19.2856 2.57909 15.5702C0.0960614 11.8548 0.583641 6.90276 3.74364 3.743C5.49874 1.98741 7.87923 1.00076 10.3616 1ZM15.1356 9.857C15.4181 9.857 15.6471 10.086 15.6471 10.3685C15.6471 10.651 15.4181 10.88 15.1356 10.88H10.3616C10.1796 10.878 10.0124 10.7794 9.92263 10.621L9.91564 10.614L9.90765 10.6V10.592L9.90063 10.577L9.89263 10.563V10.555L9.88564 10.54L9.87862 10.533V10.519L9.87164 10.5L9.86465 10.485V10.468V10.454L9.85763 10.447V10.432V10.417V10.4V10.383V10.368V4.26801C9.85763 3.99185 10.0815 3.76801 10.3576 3.76801C10.6365 3.76578 10.8648 3.98917 10.8686 4.26801V9.857H15.1356ZM16.2656 4.46401C13.449 1.65128 9.03777 1.21979 5.72948 3.43341C2.4212 5.64703 1.1372 9.88928 2.66271 13.5659C4.18819 17.2426 8.09835 19.3297 12.002 18.551C15.9056 17.7722 18.7156 14.3446 18.7136 10.364C18.7147 8.1487 17.8334 6.02553 16.2647 4.46311L16.2656 4.46401Z" fill="white"/>
<path d="M19.5516 8.53554L20.0419 8.43782L20.0419 8.43782L19.5516 8.53554ZM13.9523 19.0183L13.7609 18.5564L13.9523 19.0183ZM2.57909 15.5702L2.16338 15.848L2.16339 15.848L2.57909 15.5702ZM3.74364 3.743L4.09718 4.09656L4.09725 4.0965L3.74364 3.743ZM10.3616 10.88L10.3562 11.38H10.3616V10.88ZM9.92263 10.621L10.3576 10.3745L10.3243 10.3157L10.2766 10.2678L9.92263 10.621ZM9.86465 10.454H10.3646V10.2463L10.2174 10.0997L9.86465 10.454ZM10.3576 3.76801V4.26802L10.3616 4.26799L10.3576 3.76801ZM10.8686 4.26801H11.3687L11.3686 4.26111L10.8686 4.26801ZM10.8686 9.857H10.3686V10.357H10.8686V9.857ZM16.2656 4.46401L15.9148 4.82029L16.619 4.11021L16.2656 4.46401ZM5.72948 3.43341L5.45143 3.01786L5.72948 3.43341ZM2.66271 13.5659L3.12454 13.3743L3.12454 13.3743L2.66271 13.5659ZM12.002 18.551L12.0998 19.0413H12.0998L12.002 18.551ZM18.7136 10.364L18.2136 10.3638V10.3642L18.7136 10.364ZM16.2647 4.46311L16.6155 4.10682L15.9119 4.81736L16.2647 4.46311ZM10.3619 1.5C14.5921 1.49796 18.2345 4.48465 19.0612 8.63326L20.0419 8.43782C19.1219 3.82129 15.0687 0.497735 10.3614 0.500001L10.3619 1.5ZM19.0612 8.63326C19.8879 12.7819 17.6687 16.9367 13.7609 18.5564L14.1438 19.4801C18.4923 17.6778 20.9619 13.0543 20.0419 8.43782L19.0612 8.63326ZM13.7609 18.5564C9.85306 20.1761 5.34531 18.8094 2.9948 15.2924L2.16339 15.848C4.779 19.7618 9.79518 21.2825 14.1438 19.4801L13.7609 18.5564ZM2.9948 15.2924C0.644325 11.7753 1.10588 7.08764 4.09718 4.09656L3.3901 3.38943C0.0614045 6.71787 -0.452203 11.9343 2.16338 15.848L2.9948 15.2924ZM4.09725 4.0965C5.75861 2.43468 8.01197 1.50072 10.3618 1.5L10.3615 0.500001C7.7465 0.500805 5.23887 1.54015 3.39004 3.38949L4.09725 4.0965ZM15.1356 10.357C15.1382 10.357 15.1393 10.3574 15.14 10.3577C15.141 10.3581 15.1424 10.359 15.1438 10.3604C15.1452 10.3618 15.146 10.3632 15.1464 10.3642C15.1467 10.3649 15.1471 10.366 15.1471 10.3685H16.1471C16.1471 9.80988 15.6943 9.357 15.1356 9.357V10.357ZM15.1471 10.3685C15.1471 10.371 15.1467 10.3721 15.1464 10.3728C15.146 10.3738 15.1452 10.3752 15.1438 10.3766C15.1424 10.378 15.141 10.3789 15.14 10.3793C15.1393 10.3796 15.1382 10.38 15.1356 10.38V11.38C15.6943 11.38 16.1471 10.9271 16.1471 10.3685H15.1471ZM15.1356 10.38H10.3616V11.38H15.1356V10.38ZM10.3671 10.38C10.3632 10.38 10.3595 10.3779 10.3576 10.3745L9.48764 10.8675C9.66522 11.1809 9.99608 11.3761 10.3562 11.38L10.3671 10.38ZM10.2766 10.2678L10.2696 10.2608L9.5617 10.9672L9.56869 10.9742L10.2766 10.2678ZM10.3498 10.3659L10.3418 10.3519L9.47352 10.8481L9.48152 10.8621L10.3498 10.3659ZM10.4076 10.6V10.592H9.40765V10.6H10.4076ZM10.3605 10.3801L10.3535 10.3651L9.44776 10.7889L9.45478 10.8039L10.3605 10.3801ZM10.3348 10.3289L10.3268 10.3149L9.45851 10.8111L9.4665 10.8251L10.3348 10.3289ZM10.3926 10.563V10.555H9.39263V10.563H10.3926ZM10.3459 10.344L10.3389 10.329L9.43234 10.751L9.43933 10.766L10.3459 10.344ZM10.2384 10.1857L10.2314 10.1787L9.52583 10.8873L9.53285 10.8943L10.2384 10.1857ZM10.3786 10.533V10.519H9.37862V10.533H10.3786ZM10.3479 10.3464L10.3409 10.3274L9.40238 10.6726L9.40937 10.6916L10.3479 10.3464ZM10.3249 10.2888L10.3179 10.2738L9.41143 10.6962L9.41842 10.7112L10.3249 10.2888ZM10.3646 10.485V10.468H9.36465V10.485H10.3646ZM10.3646 10.468V10.454H9.36465V10.468H10.3646ZM10.2174 10.0997L10.2104 10.0927L9.50483 10.8013L9.51185 10.8083L10.2174 10.0997ZM10.3576 10.447V10.432H9.35763V10.447H10.3576ZM10.3576 10.432V10.417H9.35763V10.432H10.3576ZM10.3576 10.417V10.4H9.35763V10.417H10.3576ZM10.3576 10.4V10.383H9.35763V10.4H10.3576ZM10.3576 10.383V10.368H9.35763V10.383H10.3576ZM10.3576 10.368V4.26801H9.35763V10.368H10.3576ZM10.3576 4.26801V3.26801C9.80538 3.26801 9.35763 3.71569 9.35763 4.26801H10.3576ZM10.3616 4.26799C10.3635 4.26798 10.364 4.26825 10.3642 4.26832C10.3647 4.26852 10.3656 4.26901 10.3666 4.26999C10.3676 4.27097 10.3681 4.27186 10.3683 4.27234C10.3684 4.27249 10.3687 4.27303 10.3687 4.2749L11.3686 4.26111C11.361 3.70729 10.9075 3.2636 10.3536 3.26802L10.3616 4.26799ZM10.3686 4.26801V9.857H11.3686V4.26801H10.3686ZM10.8686 10.357H15.1356V9.357H10.8686V10.357ZM16.619 4.11021C13.6335 1.12893 8.95796 0.671586 5.45143 3.01786L6.00754 3.84897C9.11758 1.76799 13.2645 2.17362 15.9123 4.81781L16.619 4.11021ZM5.45143 3.01786C1.9449 5.36413 0.58396 9.86058 2.20089 13.7575L3.12454 13.3743C1.69044 9.91798 2.89749 5.92994 6.00754 3.84897L5.45143 3.01786ZM2.20089 13.7575C3.81778 17.6545 7.96225 19.8667 12.0998 19.0413L11.9042 18.0606C8.23445 18.7927 4.55861 16.8306 3.12454 13.3743L2.20089 13.7575ZM12.0998 19.0413C16.2374 18.2159 19.2157 14.5828 19.2136 10.3638L18.2136 10.3642C18.2155 14.1063 15.5739 17.3286 11.9042 18.0606L12.0998 19.0413ZM19.2136 10.3642C19.2148 8.01594 18.2805 5.76519 16.6176 4.10885L15.9119 4.81736C17.3863 6.28587 18.2146 8.28145 18.2136 10.3638L19.2136 10.3642ZM15.9139 4.81939L15.9148 4.82029L16.6164 4.10772L16.6155 4.10682L15.9139 4.81939Z" fill="white"/>
</svg>
