<svg width="32" height="37" viewBox="0 0 32 37" fill="none" xmlns="http://www.w3.org/2000/svg">
<path d="M13.8612 15.6532C13.4154 15.6532 13.0519 15.9783 13.0519 16.3771V16.9114H14.6705V16.3771C14.6706 15.9783 14.3078 15.6532 13.8612 15.6532ZM13.8612 15.6532C13.4154 15.6532 13.0519 15.9783 13.0519 16.3771V16.9114H14.6705V16.3771C14.6706 15.9783 14.3078 15.6532 13.8612 15.6532ZM13.8612 15.6532C13.4154 15.6532 13.0519 15.9783 13.0519 16.3771V16.9114H14.6705V16.3771C14.6706 15.9783 14.3078 15.6532 13.8612 15.6532ZM13.8612 15.6532C13.4154 15.6532 13.0519 15.9783 13.0519 16.3771V16.9114H14.6705V16.3771C14.6706 15.9783 14.3078 15.6532 13.8612 15.6532ZM13.8612 15.6532C13.4154 15.6532 13.0519 15.9783 13.0519 16.3771V16.9114H14.6705V16.3771C14.6706 15.9783 14.3078 15.6532 13.8612 15.6532ZM13.8612 15.6532C13.4154 15.6532 13.0519 15.9783 13.0519 16.3771V16.9114H14.6705V16.3771C14.6706 15.9783 14.3078 15.6532 13.8612 15.6532ZM29.9408 2.71069H25.7681V5.23811C25.7681 5.84171 25.2204 6.33159 24.5456 6.33159H7.87518C7.19956 6.33159 6.6527 5.84098 6.6527 5.23811V2.71069H2.20209C1.52728 2.71069 0.979614 3.20058 0.979614 3.80418V35.613C0.979614 36.2166 1.52728 36.7065 2.20209 36.7065H29.9408C30.6156 36.7065 31.1633 36.2166 31.1633 35.613V3.80418C31.1633 3.20058 30.6156 2.71069 29.9408 2.71069ZM19.5033 31.0973C19.9801 31.5245 19.9801 32.2163 19.5033 32.6435C19.0263 33.0703 18.2531 33.0721 17.774 32.6435L16.0715 31.1207L14.369 32.6435C13.8919 33.0703 13.1187 33.0721 12.6396 32.6435C12.1628 32.2163 12.1628 31.5245 12.6396 31.0973L14.3429 29.5745L12.6396 28.0509C12.1628 27.6237 12.1628 26.9319 12.6396 26.5047C13.1171 26.0775 13.8914 26.0775 14.369 26.5047L16.0715 28.0275L17.774 26.5047C18.2515 26.0775 19.0258 26.0775 19.5033 26.5047C19.9801 26.9319 19.9801 27.6237 19.5033 28.0509L17.8008 29.5745L19.5033 31.0973ZM26.7103 23.998H5.43276C4.75795 23.998 4.21028 23.5081 4.21028 22.9045C4.21028 22.3002 4.75795 21.811 5.43276 21.811H26.7103C27.3851 21.811 27.9328 22.3002 27.9328 22.9045C27.9328 23.5081 27.3851 23.998 26.7103 23.998ZM8.59733 16.4638C9.15967 16.4638 9.61606 16.8714 9.61606 17.3751C9.61606 17.8781 9.15967 18.2863 8.59733 18.2863H6.63486V19.5169C6.63486 20.0199 6.17928 20.4281 5.61613 20.4281C5.05379 20.4281 4.5974 20.0199 4.5974 19.5169V14.742C4.5974 14.241 5.05118 13.8307 5.61613 13.8307H9.12626C9.68941 13.8307 10.145 14.239 10.145 14.742C10.145 15.245 9.68941 15.6532 9.12626 15.6532H6.63486V16.4638H8.59733ZM13.0519 18.7339V19.5169C13.0519 20.0199 12.5964 20.4281 12.0332 20.4281C11.4709 20.4281 11.0145 20.0199 11.0145 19.5169V16.3771C11.0145 14.9731 12.2916 13.8307 13.8612 13.8307C15.4317 13.8307 16.7088 14.9731 16.7088 16.3771V19.5169C16.7088 20.0199 16.2524 20.4281 15.6892 20.4281C15.1269 20.4281 14.6705 20.0199 14.6705 19.5169V18.7339H13.0519ZM18.4594 19.5169V14.742C18.4594 14.239 18.915 13.8307 19.4782 13.8307C20.0405 13.8307 20.4969 14.239 20.4969 14.742V19.5169C20.4969 20.0199 20.0405 20.4281 19.4782 20.4281C18.9149 20.4281 18.4594 20.0199 18.4594 19.5169ZM26.5269 18.6056C27.0893 18.6056 27.5457 19.0131 27.5457 19.5169C27.5457 20.0199 27.0893 20.4281 26.5269 20.4281H23.2197C22.6574 20.4281 22.201 20.0199 22.201 19.5169V14.742C22.201 14.239 22.6574 13.8307 23.2197 13.8307C23.7821 13.8307 24.2385 14.239 24.2385 14.742V18.6056H26.5269ZM26.7103 12.7773H5.43276C4.75795 12.7773 4.21028 12.2875 4.21028 11.6838C4.21028 11.0795 4.75795 10.5904 5.43276 10.5904H26.7103C27.3851 10.5904 27.9328 11.0795 27.9328 11.6838C27.9328 12.2875 27.3851 12.7773 26.7103 12.7773ZM14.6706 16.3771C14.6706 15.9783 14.3079 15.6532 13.8613 15.6532C13.4155 15.6532 13.052 15.9783 13.052 16.3771V16.9114H14.6706V16.3771ZM13.8612 15.6532C13.4154 15.6532 13.0519 15.9783 13.0519 16.3771V16.9114H14.6705V16.3771C14.6706 15.9783 14.3078 15.6532 13.8612 15.6532ZM13.8612 15.6532C13.4154 15.6532 13.0519 15.9783 13.0519 16.3771V16.9114H14.6705V16.3771C14.6706 15.9783 14.3078 15.6532 13.8612 15.6532ZM13.8612 15.6532C13.4154 15.6532 13.0519 15.9783 13.0519 16.3771V16.9114H14.6705V16.3771C14.6706 15.9783 14.3078 15.6532 13.8612 15.6532ZM13.8612 15.6532C13.4154 15.6532 13.0519 15.9783 13.0519 16.3771V16.9114H14.6705V16.3771C14.6706 15.9783 14.3078 15.6532 13.8612 15.6532Z" fill="#4893D8"/>
<path d="M22.9157 0.596924H9.50515C9.28013 0.596924 9.09766 0.760146 9.09766 0.961421V3.77972C9.09766 3.98099 9.28013 4.14421 9.50515 4.14421H22.9157C23.1407 4.14421 23.3232 3.98099 23.3232 3.77972V0.961421C23.3232 0.760146 23.1408 0.596924 22.9157 0.596924Z" fill="#4893D8"/>
</svg>
