<svg width="42" height="43" viewBox="0 0 42 43" fill="none" xmlns="http://www.w3.org/2000/svg">
<path fill-rule="evenodd" clip-rule="evenodd" d="M24.466 0.171631V6.4045H22.0575C20.7271 6.4045 19.6486 7.50609 19.6486 8.86499C19.6486 10.2239 20.7271 11.3255 22.0575 11.3255H24.466V17.4765H31.6924V13.7866C31.6937 13.1082 32.2324 12.559 32.8966 12.559C33.5607 12.559 34.0995 13.1082 34.1008 13.7866V17.4776H41.4084V0.171631H24.466Z" fill="#4893D8"/>
<path fill-rule="evenodd" clip-rule="evenodd" d="M5.75602 26.0885C5.75602 27.4474 6.83455 28.549 8.16499 28.549C9.49543 28.549 10.574 27.4474 10.574 26.0885V23.6285H16.0341V17.4775H13.6256C12.9606 17.4775 12.4214 16.9268 12.4214 16.2476C12.4214 15.5682 12.9606 15.0176 13.6256 15.0176H16.0341V7.6355H0.295898V23.6285H5.75602V26.0885Z" fill="#4893D8"/>
<path fill-rule="evenodd" clip-rule="evenodd" d="M28.7213 26.0887V23.6287C28.7213 22.2698 27.6428 21.1682 26.3123 21.1682C24.9819 21.1682 23.9034 22.2698 23.9034 23.6287V26.0887H18.4432V29.2057C21.1021 29.2086 23.2561 31.411 23.256 34.1268C23.256 36.8425 21.102 39.0449 18.4431 39.0477L18.4432 42.1647H34.1013V26.0887H28.7213Z" fill="#4893D8"/>
<path fill-rule="evenodd" clip-rule="evenodd" d="M18.4436 36.5863C19.774 36.5863 20.8525 35.4847 20.8525 34.1258C20.8525 32.7669 19.774 31.6653 18.4436 31.6653L16.0341 31.6653V26.0884H12.9824C12.9824 28.8062 10.8253 31.0094 8.16447 31.0094C5.50359 31.0094 3.34653 28.8062 3.34653 26.0884H0.295898V42.1633H16.0341V36.5863H18.4436Z" fill="#4893D8"/>
</svg>
