<svg width="33" height="33" viewBox="0 0 33 33" fill="none" xmlns="http://www.w3.org/2000/svg">
<g clip-path="url(#clip0_10_18)">
<path d="M31.4321 6.27751C31.4316 6.27698 31.431 6.27638 31.4305 6.27585L26.2275 0.961502C25.504 0.187401 24.3401 0.0573325 23.4699 0.65327C22.5425 1.34686 22.3411 2.67697 23.0202 3.62426C23.0751 3.70078 23.1349 3.77352 23.1993 3.84188L23.8653 4.52211C24.2204 4.88475 24.6559 5.15459 25.1348 5.30864L25.8112 5.52121H24.2503C22.0418 5.51942 19.923 6.41409 18.3605 8.00833L16.1128 10.3573C15.3029 11.1476 15.2171 12.4385 15.9151 13.3333C16.3105 13.8055 16.8884 14.0774 17.4968 14.0773C18.0478 14.0749 18.5755 13.8494 18.964 13.4502L21.295 11.0694C22.0788 10.2696 23.1425 9.82211 24.2503 9.82583H25.9569L25.3221 10.0278C24.831 10.1802 24.3842 10.4541 24.0214 10.8249L23.3658 11.4945C22.5559 12.2848 22.4702 13.5758 23.1681 14.4706C23.9116 15.3659 25.2249 15.4761 26.1015 14.7167C26.1451 14.679 26.1871 14.6394 26.2275 14.5981L31.4305 9.28377C32.2437 8.45407 32.2444 7.10814 31.4321 6.27751Z" fill="#4893D8"/>
<path d="M31.4117 23.2095C31.4111 23.2089 31.4106 23.2083 31.41 23.2078L26.2174 17.8191C25.389 17.0053 24.0714 17.0315 23.2747 17.8778C23.2103 17.9461 23.1505 18.0189 23.0956 18.0954C22.5121 18.9843 22.6395 20.173 23.3974 20.912L24.053 21.5816C24.3894 21.9267 24.7987 22.1885 25.2497 22.3469L25.9469 22.5913H24.2819C23.1776 22.5922 22.1183 22.1449 21.337 21.3478L11.472 11.2718C9.90273 9.65934 7.76656 8.75597 5.54057 8.76341H3.04312C1.98645 8.7213 1.05608 9.46889 0.847438 10.5278C0.651934 11.6847 1.41164 12.7844 2.54428 12.9841C2.67117 13.0065 2.79988 13.0168 2.92865 13.0149H5.54057C6.64485 13.014 7.70419 13.4614 8.48549 14.2584L10.3898 16.2035L8.48549 18.1485C7.70419 18.9456 6.64485 19.393 5.54057 19.3921H3.04312C1.98645 19.35 1.05608 20.0976 0.847438 21.1565C0.651934 22.3134 1.41164 23.4131 2.54428 23.6128C2.67117 23.6352 2.79988 23.6455 2.92865 23.6436H5.54057C7.74913 23.6454 9.86787 22.7507 11.4304 21.1565L13.3347 19.2114L18.3608 24.3451C19.9234 25.9393 22.0421 26.834 24.2507 26.8322H25.822L25.1768 27.0448C24.71 27.2003 24.2858 27.4662 23.9385 27.8207L23.3453 28.4265C22.5354 29.2168 22.4497 30.5077 23.1476 31.4025C23.8911 32.2979 25.2045 32.4081 26.081 31.6487C26.1246 31.6109 26.1666 31.5713 26.207 31.5301L31.41 26.2157C32.2232 25.386 32.224 24.0401 31.4117 23.2095Z" fill="#4893D8"/>
</g>
<defs>
<clipPath id="clip0_10_18">
<rect width="31.2245" height="31.8925" fill="white" transform="translate(0.816284 0.270996)"/>
</clipPath>
</defs>
</svg>
