<svg width="35" height="42" viewBox="0 0 35 42" fill="none" xmlns="http://www.w3.org/2000/svg">
<path fill-rule="evenodd" clip-rule="evenodd" d="M0.326538 39.3018V2.94434C0.356395 2.8923 0.382187 2.83793 0.403532 2.78167C0.686097 1.44503 1.89373 0.528326 3.2283 0.637464H31.5021C31.7844 0.629677 32.0669 0.637139 32.3483 0.659784C33.2584 0.736544 34.0603 1.30066 34.4549 2.1417C34.5716 2.40267 34.6734 2.67033 34.7599 2.9433V31.4616C34.6235 31.5785 34.483 31.6912 34.3519 31.8135C30.9283 34.9814 27.503 38.148 24.0759 41.3132C23.9155 41.4578 23.7119 41.5428 23.4983 41.5545C16.6629 41.5665 9.82818 41.5691 2.99414 41.5619C1.85905 41.5563 0.853934 40.8115 0.496281 39.7111C0.442029 39.5761 0.380663 39.44 0.326538 39.3018ZM22.6431 37.0693H22.2445C16.5803 37.0693 10.9162 37.0693 5.25204 37.0693C4.46939 37.0693 4.37461 36.9842 4.37461 36.1901C4.37461 26.1376 4.37461 16.0851 4.37461 6.03256C4.37461 5.22779 4.45999 5.13954 5.23438 5.13954H22.0769C22.0634 5.20547 22.0654 5.22351 22.0571 5.23097C21.9925 5.29371 21.9259 5.35321 21.8614 5.41596C19.8404 7.19908 18.825 9.89559 19.1553 12.6024C19.2047 13.8976 19.8219 15.1013 20.8359 15.8807C21.85 16.66 23.1534 16.9322 24.3854 16.6219C27.3216 16.0691 29.1441 14.0557 30.4377 11.4543C30.4981 11.3331 30.3441 11.1003 30.2899 10.9227C30.1255 11.0046 29.8965 11.0428 29.806 11.1779C29.4719 11.6775 29.2252 12.2409 28.8692 12.7225C27.87 14.236 26.3767 15.3377 24.6559 15.831C23.5934 16.2147 22.4162 16.0661 21.4771 15.43C20.5379 14.7938 19.9459 13.7439 19.8787 12.595C19.5476 10.0737 20.4961 7.55374 22.3954 5.90818C22.5627 5.70684 22.705 5.48506 22.819 5.24797L22.7149 5.14169H29.8467C30.6263 5.14169 30.7095 5.22883 30.7095 6.02932C30.7095 13.9862 30.7067 21.943 30.7011 29.8999V30.5505H33.5196C33.528 30.3761 33.5415 30.2315 33.5415 30.0806C33.5449 21.2584 33.5477 12.4348 33.5499 3.60974C33.6169 3.1244 33.4561 2.63516 33.116 2.28938C32.7759 1.94361 32.296 1.78172 31.8212 1.85251H3.27662C3.17256 1.85251 3.06851 1.85251 2.96432 1.85251C2.20188 1.88184 1.58606 2.49799 1.54159 3.27597C1.52494 3.50242 1.5332 3.73095 1.5332 3.95954C1.5332 15.2878 1.5332 26.6156 1.5332 37.9431C1.5332 38.2015 1.5332 38.4598 1.5332 38.7171C1.50004 39.165 1.66242 39.605 1.97674 39.9191C2.2912 40.2332 2.72534 40.3894 3.16316 40.3457C9.49611 40.3457 15.8296 40.3457 22.1633 40.3457C22.3194 40.3457 22.4756 40.3287 22.641 40.3191L22.6431 37.0693ZM23.8831 39.5898L32.522 31.8293H23.8831V39.5898ZM28.782 17.9145H6.41388V18.9776H28.782V17.9145ZM28.782 21.9214H6.41592V22.9844H28.782V21.9214ZM6.40372 27.0008H28.7656V25.9377H6.40372V27.0008ZM6.3966 31.0955H28.7648V30.0324H6.3966V31.0955ZM26.172 10.1605C26.3734 10.0596 26.5598 9.93005 26.7257 9.77569C26.8293 9.63262 26.8651 9.4499 26.8235 9.27711C26.7923 9.19094 26.5248 9.15059 26.3729 9.17076C26.2296 9.21184 26.0986 9.28899 25.992 9.39507C25.7546 9.58434 25.584 9.53756 25.3988 9.30151C24.9543 8.73279 24.4766 8.18957 24.0457 7.61442C23.9342 7.46771 23.9416 7.22958 23.8656 7.04888C23.7802 6.88173 23.6832 6.72114 23.5752 6.56834C23.4268 6.6802 23.2875 6.80426 23.159 6.93935C23.1005 7.00949 23.1193 7.14348 23.0975 7.24762C22.5947 9.6332 22.0857 12.0177 21.6018 14.4064C21.5726 14.61 21.6411 14.8154 21.786 14.9582C22.0629 15.1081 22.2106 14.8668 22.2804 14.6106C22.4885 13.8505 22.6853 13.0882 22.8934 12.3292C22.9277 12.2048 22.9662 12.0347 23.0568 11.9795C23.8677 11.4841 24.6898 11.0088 25.5153 10.5241C26.0273 11.1056 26.4978 11.6329 26.9588 12.1676C27.1358 12.3728 27.3169 12.5865 27.5833 12.3611C27.8497 12.1357 27.6822 11.8987 27.5105 11.6988C27.0752 11.1917 26.6424 10.6952 26.1697 10.1573L26.172 10.1605ZM12.1479 13.8879H7.50895C7.24214 13.8611 6.97457 13.8716 6.70852 13.9192C6.59824 13.9504 6.50866 14.2355 6.40982 14.4054C6.50358 14.5836 6.60306 14.7512 6.70737 14.9074C6.74702 14.9621 6.82299 14.923 6.88233 14.923H17.4081C17.4821 14.923 17.5799 14.964 17.6257 14.8937C17.7278 14.7661 17.8047 14.5786 17.8442 14.3606C17.8546 14.2336 17.7225 14.0012 17.6287 13.9289C17.5132 13.8767 17.3937 13.8648 17.2759 13.8938L12.1479 13.8879ZM12.1229 34.1067H7.17379C7.02628 34.0765 6.87724 34.0869 6.73139 34.1375C6.61221 34.2519 6.50422 34.4025 6.41185 34.5831C6.51324 34.777 6.62212 34.9569 6.73761 35.1212C6.78856 35.1848 6.88233 35.1328 6.95614 35.1328H17.3008C17.4047 35.1669 17.5113 35.1576 17.6131 35.1058C17.7171 35.0035 17.8483 34.7856 17.8462 34.6216C17.8442 34.4577 17.7109 34.2224 17.6079 34.1452C17.4776 34.0901 17.343 34.0783 17.2104 34.1104L12.1229 34.1067ZM29.0077 7.70167C28.9523 7.47126 28.8691 7.24877 28.7599 7.03932C28.6559 6.89371 28.4476 6.72041 28.3061 6.73637C28.0407 6.77569 28.0188 7.0266 28.0876 7.27855C28.3217 8.13965 28.3187 8.14068 27.5858 8.59358C27.5473 8.61694 27.489 8.6318 27.4755 8.66587C27.4058 8.84021 27.3475 9.01988 27.2861 9.19741C27.4672 9.23141 27.6712 9.33451 27.8263 9.28351C28.091 9.16815 28.3434 9.02566 28.5799 8.85825C28.6745 9.17723 28.7651 9.4674 28.8433 9.75763C28.912 10.0128 29.064 10.2041 29.3116 10.0765C29.4557 9.95443 29.5333 9.76873 29.5197 9.57796C29.4484 9.19241 29.3535 8.81179 29.2356 8.43838C29.4967 8.30692 29.7464 8.15295 29.9819 7.97802C30.086 7.8877 30.1745 7.60278 30.1193 7.53582C29.9964 7.40988 29.824 7.34804 29.6509 7.36783C29.4223 7.4481 29.2051 7.55924 29.0054 7.69842L29.0077 7.70167Z" fill="#4893D8"/>
<path fill-rule="evenodd" clip-rule="evenodd" d="M21.09 6.76481L21.5761 4.1167L22.9291 5.71133L21.09 6.76481Z" fill="#4893D8"/>
</svg>
