<svg width="21" height="21" viewBox="0 0 21 21" fill="none" xmlns="http://www.w3.org/2000/svg">
<g clip-path="url(#clip0_652_6897)">
<path d="M1.75 7H19.25M10.5 20.125C15.8156 20.125 20.125 15.8156 20.125 10.5C20.125 5.18437 15.8156 0.875 10.5 0.875C5.18437 0.875 0.875 5.18437 0.875 10.5C0.875 15.8156 5.18437 20.125 10.5 20.125ZM10.5 20.125C13.125 20.125 14 15.75 14 10.5C14 5.25 13.125 0.875 10.5 0.875C7.875 0.875 7 5.25 7 10.5C7 15.75 7.875 20.125 10.5 20.125ZM1.75 14H19.25H1.75Z" stroke="#FF473D" stroke-width="3"/>
</g>
<defs>
<clipPath id="clip0_652_6897">
<rect width="21" height="21" fill="white"/>
</clipPath>
</defs>
</svg>
