<svg width="50" height="50" viewBox="0 0 50 50" fill="none" xmlns="http://www.w3.org/2000/svg">
<circle cx="25" cy="25" r="25" fill="#E4EAFF"/>
<path fill-rule="evenodd" clip-rule="evenodd" d="M22.5085 34.5051L31.9246 26.0862C32.115 25.9173 32.2222 25.6862 32.2222 25.4449C32.2222 25.2037 32.115 24.9725 31.9246 24.8036L22.5085 16.3847C21.9316 15.8718 21.0067 15.8718 20.4298 16.3847C20.1548 16.6297 20 16.9643 20 17.3135C20 17.6626 20.1548 17.9972 20.4298 18.2422L28.4851 25.4449L20.4298 32.6457C20.155 32.8911 20.0003 33.2257 20.0003 33.575C20.0003 33.9242 20.155 34.2589 20.4298 34.5042C21.0067 35.0171 21.9316 35.0171 22.5085 34.5042" fill="#4893D8"/>
</svg>
