<svg width="18" height="21" viewBox="0 0 18 21" fill="none" xmlns="http://www.w3.org/2000/svg">
<path d="M15.0816 7H16.9796C17.2313 7 17.4726 7.10536 17.6506 7.29289C17.8286 7.48043 17.9286 7.73478 17.9286 8V20C17.9286 20.2652 17.8286 20.5196 17.6506 20.7071C17.4726 20.8946 17.2313 21 16.9796 21H1.7959C1.54422 21 1.30284 20.8946 1.12487 20.7071C0.946905 20.5196 0.846924 20.2652 0.846924 20V8C0.846924 7.73478 0.946905 7.48043 1.12487 7.29289C1.30284 7.10536 1.54422 7 1.7959 7H3.69386V6C3.69386 4.4087 4.29375 2.88258 5.36156 1.75736C6.42937 0.632141 7.87763 0 9.38774 0C10.8979 0 12.3461 0.632141 13.4139 1.75736C14.4817 2.88258 15.0816 4.4087 15.0816 6V7ZM13.1837 7V6C13.1837 4.93913 12.7837 3.92172 12.0719 3.17157C11.36 2.42143 10.3945 2 9.38774 2C8.381 2 7.41549 2.42143 6.70362 3.17157C5.99175 3.92172 5.59182 4.93913 5.59182 6V7H13.1837ZM8.43876 13V15H10.3367V13H8.43876ZM4.64284 13V15H6.5408V13H4.64284ZM12.2347 13V15H14.1326V13H12.2347Z" fill="#3BC9A7"/>
</svg>
