<svg width="29" height="29" viewBox="0 0 29 29" fill="none" xmlns="http://www.w3.org/2000/svg">
<circle cx="14.6556" cy="14.3005" r="13.8462" transform="rotate(-0.354872 14.6556 14.3005)" fill="#EDEDED"/>
<path d="M12.5402 8.08272L11.2818 9.47515L9.08726 9.48875C8.32573 9.49346 7.70653 10.1204 7.71124 10.8819L7.7627 19.1894C7.76741 19.951 8.39434 20.5702 9.15586 20.5655L20.2326 20.4968C20.9941 20.4921 21.6133 19.8652 21.6086 19.1037L21.5571 10.7962C21.5524 10.0346 20.9255 9.41542 20.164 9.42014L17.9694 9.43373L16.6939 8.05699L12.5402 8.08272ZM14.6814 18.4543C12.7706 18.4661 11.2103 16.925 11.1984 15.0142C11.1866 13.1035 12.7277 11.5432 14.6385 11.5313C16.5492 11.5195 18.1096 13.0606 18.1214 14.9714C18.1332 16.8821 16.5921 18.4424 14.6814 18.4543Z" fill="#8C8C8C"/>
</svg>
