<svg width="30" height="30" viewBox="0 0 30 30" fill="none" xmlns="http://www.w3.org/2000/svg">
<path d="M26.25 6.25L15 1.25L3.75 6.25V13.75C3.75 20.6875 8.55 27.175 15 28.75C17.875 28.05 20.4125 26.375 22.35 24.1125L18.45 20.2125C17.2484 21.0067 15.809 21.361 14.376 21.2152C12.943 21.0693 11.6046 20.4325 10.5875 19.4125C9.41672 18.24 8.75914 16.6507 8.75914 14.9937C8.75914 13.3368 9.41672 11.7475 10.5875 10.575C11.76 9.40422 13.3493 8.74664 15.0063 8.74664C16.6632 8.74664 18.2525 9.40422 19.425 10.575C20.4425 11.5935 21.0776 12.9317 21.2233 14.364C21.369 15.7962 21.0165 17.2349 20.225 18.4375L23.85 22.0625C25.3625 19.6125 26.25 16.725 26.25 13.75V6.25Z" fill="#3BC9A7"/>
<path d="M15 18.75C17.0711 18.75 18.75 17.0711 18.75 15C18.75 12.9289 17.0711 11.25 15 11.25C12.9289 11.25 11.25 12.9289 11.25 15C11.25 17.0711 12.9289 18.75 15 18.75Z" fill="#3BC9A7"/>
</svg>
