<svg width="50" height="50" viewBox="0 0 50 50" fill="none" xmlns="http://www.w3.org/2000/svg">
<circle cx="25" cy="25" r="25" fill="#E4EAFF"/>
<path fill-rule="evenodd" clip-rule="evenodd" d="M27.7137 34.5051L18.2976 26.0862C18.1073 25.9173 18 25.6862 18 25.4449C18 25.2037 18.1073 24.9725 18.2976 24.8036L27.7137 16.3847C28.2907 15.8718 29.2155 15.8718 29.7925 16.3847C30.0674 16.6297 30.2222 16.9643 30.2222 17.3135C30.2222 17.6626 30.0674 17.9972 29.7925 18.2422L21.7371 25.4449L29.7925 32.6457C30.0672 32.8911 30.2219 33.2257 30.2219 33.575C30.2219 33.9242 30.0672 34.2589 29.7925 34.5042C29.2155 35.0171 28.2907 35.0171 27.7137 34.5042" fill="#4893D8"/>
</svg>
