<svg width="27" height="21" viewBox="0 0 27 21" fill="none" xmlns="http://www.w3.org/2000/svg">
<path d="M11.18 2H3.1475C2.84316 2 2.55129 2.1194 2.33609 2.33195C2.1209 2.54449 2 2.83275 2 3.13333V17.8667C2 18.1672 2.1209 18.4555 2.33609 18.6681C2.55129 18.8806 2.84316 19 3.1475 19H23.8025C24.1068 19 24.3987 18.8806 24.6139 18.6681C24.8291 18.4555 24.95 18.1672 24.95 17.8667V16.45" stroke="#FF473D" stroke-width="3" stroke-linecap="round" stroke-linejoin="round"/>
<path d="M5.44263 9.36621H10.0326" stroke="#FF473D" stroke-width="3" stroke-linecap="round"/>
<path d="M5.44263 13.9004H19.2126" stroke="#FF473D" stroke-width="3" stroke-linecap="round"/>
<path d="M19.2124 8.8C21.1136 8.8 22.6549 7.27777 22.6549 5.4C22.6549 3.52223 21.1136 2 19.2124 2C17.3112 2 15.7699 3.52223 15.7699 5.4C15.7699 7.27777 17.3112 8.8 19.2124 8.8Z" stroke="#FF473D" stroke-width="3" stroke-linecap="round" stroke-linejoin="round"/>
<path d="M24.95 12.4372C23.8295 10.2743 21.5075 8.7998 19.2125 8.7998C16.9175 8.7998 15.774 9.44184 14.5938 10.4998" stroke="#FF473D" stroke-width="3" stroke-linecap="round" stroke-linejoin="round"/>
</svg>
