<svg width="24" height="23" viewBox="0 0 24 23" fill="none" xmlns="http://www.w3.org/2000/svg">
<path d="M13.0102 0.625312C12.1764 -0.208437 10.8252 -0.208437 9.99145 0.625312L0.627571 9.99062C-0.206179 10.8244 -0.206179 12.1742 0.627571 13.0065L9.99432 22.3732C10.8281 23.207 12.1779 23.207 13.0102 22.3732L22.3769 13.0065C23.2107 12.1727 23.2107 10.8229 22.3769 9.99062L13.0102 0.625312ZM7.89988 8.67244C7.85355 8.67306 7.80757 8.66423 7.76476 8.64648C7.72196 8.62873 7.68322 8.60243 7.65093 8.56919C7.61863 8.53596 7.59346 8.49648 7.57694 8.45319C7.56043 8.40989 7.55292 8.36367 7.55488 8.31737C7.69145 5.88081 9.68526 5.03125 11.508 5.03125C13.5148 5.03125 15.349 6.08062 15.349 8.25125C15.349 9.80375 14.4362 10.5426 13.5608 11.2082C12.5013 12.0117 12.1089 12.3122 12.1089 13.3443V13.4952C12.1089 13.5906 12.071 13.682 12.0036 13.7494C11.9362 13.8168 11.8448 13.8546 11.7495 13.8546H10.5851C10.4908 13.8546 10.4003 13.8176 10.333 13.7514C10.2658 13.6852 10.2273 13.5953 10.2258 13.501L10.22 13.1891C10.1654 11.8565 10.9316 11.0357 11.899 10.3327C12.7471 9.6945 13.2862 9.27475 13.2862 8.36194C13.2862 7.176 12.3834 6.68294 11.3973 6.68294C10.243 6.68294 9.59613 7.37006 9.4682 8.31306C9.44232 8.51 9.2842 8.67244 9.08582 8.67244H7.89988ZM11.2421 17.9342C10.4026 17.9342 9.79163 17.3679 9.79163 16.6017C9.79163 15.8082 10.4026 15.2504 11.2435 15.2504C12.1189 15.2504 12.7213 15.8082 12.7213 16.6017C12.7213 17.3679 12.1175 17.9342 11.2421 17.9342Z" fill="#757575"/>
</svg>
