<svg width="24" height="24" viewBox="0 0 24 24" fill="none" xmlns="http://www.w3.org/2000/svg">
<circle cx="12" cy="12" r="12" fill="#E92E30"/>
<path fill-rule="evenodd" clip-rule="evenodd" d="M11.9466 10.6001C12.2133 10.3512 12.5031 10.105 12.768 9.8348C13.7226 8.86323 14.6676 7.87923 15.6196 6.90858C15.8594 6.6505 16.2164 6.53619 16.5615 6.60704C16.9066 6.67784 17.1898 6.92356 17.3085 7.25521C17.4611 7.6231 17.3717 8.04698 17.0835 8.32189C16.0169 9.42589 14.947 10.5266 13.8738 11.6241L13.3938 12.1183L13.9947 12.7406C15.0181 13.793 16.0418 14.8454 17.0658 15.8979C17.3492 16.1611 17.4533 16.5652 17.3325 16.9326C17.2353 17.2914 16.9395 17.5619 16.5734 17.6268C16.2347 17.7106 15.8771 17.6045 15.6391 17.3494C14.6551 16.3432 13.6774 15.3299 12.6925 14.3272C12.4551 14.0854 12.1991 13.8614 11.9609 13.6383C11.8365 13.7566 11.68 13.8943 11.5351 14.0428C10.5076 15.0964 9.48148 16.1512 8.4569 17.2072C8.30824 17.3879 8.11445 17.5258 7.8951 17.6072C7.45028 17.7463 6.96775 17.5663 6.72269 17.1699C6.47936 16.781 6.5302 16.2766 6.84622 15.9441C7.35197 15.4108 7.86489 14.8926 8.37508 14.3672C9.07555 13.6466 9.77629 12.9269 10.4773 12.2081C10.5413 12.1432 10.5431 12.1094 10.4773 12.041C9.51018 11.052 8.54544 10.0609 7.58309 9.06765C7.34931 8.82677 7.11554 8.58502 6.87997 8.34592C6.68324 8.15473 6.57224 7.89214 6.57224 7.61789C6.57224 7.34364 6.68324 7.08105 6.87997 6.88992C7.07333 6.69797 7.33586 6.59212 7.60821 6.5963C7.88062 6.60048 8.13979 6.71436 8.32712 6.91211C9.33239 7.94233 10.3324 8.97879 11.3378 10.009C11.5378 10.2188 11.7609 10.4214 11.9466 10.6001Z" fill="white"/>
</svg>
