<svg width="40" height="40" viewBox="0 0 40 40" fill="none" xmlns="http://www.w3.org/2000/svg">
<path d="M18.5156 0.0547972C15.5547 0.336047 13.3515 0.961047 10.8594 2.22667C7.90624 3.73449 5.2578 6.10948 3.3203 8.98448C2.99217 9.47667 2.42967 10.4767 2.0703 11.211C0.757798 13.8673 0.132798 16.3751 0.0234227 19.336C-0.0937648 22.6642 0.593735 25.836 2.07811 28.8204C3.11717 30.922 4.1953 32.4064 5.89061 34.1095C7.61717 35.8282 9.10936 36.8986 11.2109 37.9298C12.6797 38.6486 13.625 39.0001 15.1172 39.3751C19.0234 40.3595 22.9453 40.172 26.7578 38.8204C27.9219 38.4064 29.9375 37.3986 30.9765 36.7032C33.3125 35.1486 35.4531 32.9532 36.9844 30.547C37.5469 29.6642 38.4531 27.7892 38.8203 26.7501C40.6562 21.5782 40.3359 16.0314 37.9219 11.1798C36.9531 9.22667 35.8672 7.68761 34.3437 6.1173C32.6562 4.3673 31 3.16417 28.789 2.07042C26.4765 0.929797 24.3203 0.31261 21.7578 0.0782347C20.9609 0.00792217 19.1562 -0.00770283 18.5156 0.0547972ZM28.5547 9.28917C28.9844 9.4923 32.2969 12.8282 32.4609 13.2189C32.6094 13.5782 32.6094 13.9923 32.4687 14.3204C32.4062 14.461 31.5234 15.3985 30.5 16.422C28.9609 17.9376 28.5781 18.2814 28.3203 18.3517C27.9375 18.4532 27.9219 18.4532 27.5547 18.3517C27.1015 18.2267 26.7344 17.8595 26.6015 17.3829C26.5312 17.1642 26.4922 16.9298 26.5156 16.8673C26.5312 16.8048 26.5703 16.6564 26.6015 16.5314C26.625 16.3985 26.875 16.0704 27.1719 15.7657L27.6953 15.2267L25.7812 15.2501C23.9062 15.2735 23.8594 15.2814 23.4375 15.4767C22.9219 15.7189 22.4219 16.1251 21.9687 16.672C21.789 16.8907 20.6094 18.672 19.3594 20.6251C16.7265 24.7345 16.4844 25.0704 15.6562 25.8595C14.1484 27.297 13.0625 27.6564 10.2734 27.6564C8.17967 27.6564 7.90624 27.5704 7.5703 26.836C7.31249 26.2814 7.39842 25.711 7.79686 25.2892C8.22655 24.8282 8.3203 24.8126 10.3515 24.7657C12.4375 24.7189 12.5469 24.6954 13.375 24.0939C13.9844 23.6407 14.4453 23.0001 16.8359 19.2579C18.0703 17.3204 19.2265 15.547 19.3984 15.3126C20.414 13.9376 21.6797 13.0001 23.125 12.5548C23.5625 12.422 23.9062 12.3907 25.6484 12.3673L27.664 12.3282L27.1562 11.797C26.7578 11.3751 26.6406 11.1876 26.5781 10.8907C26.5312 10.6876 26.5078 10.4845 26.5234 10.4376C26.539 10.3907 26.5703 10.2579 26.5937 10.1407C26.6562 9.85948 27.0781 9.38292 27.3828 9.25011C27.7187 9.10167 28.1875 9.1173 28.5547 9.28917ZM12.5312 12.4532C13.6719 12.672 14.6015 13.1564 15.5234 14.0157C16.3047 14.7423 16.4609 15.0782 16.3203 15.711C16.164 16.3907 15.6406 16.797 14.9219 16.797C14.4375 16.797 14.3125 16.7345 13.7109 16.1954C13.4531 15.961 13.0156 15.6642 12.7422 15.5235L12.2344 15.2735L10.3515 15.2345C8.3203 15.1876 8.22655 15.172 7.79686 14.711C7.41405 14.3048 7.3203 13.7579 7.53905 13.2267C7.70311 12.836 7.86717 12.6642 8.24217 12.4923C8.51561 12.3673 8.77342 12.3439 10.25 12.3439C11.4062 12.3439 12.125 12.3829 12.5312 12.4532ZM28.3203 21.6485C28.5781 21.7189 28.9609 22.0626 30.5 23.5782C31.5234 24.6017 32.4062 25.5392 32.4687 25.6798C32.6172 26.0235 32.6015 26.461 32.4297 26.836C32.2265 27.2657 28.8906 30.5782 28.5 30.7423C27.4062 31.1876 26.3281 30.2657 26.5781 29.0939C26.6406 28.8126 26.7656 28.6251 27.164 28.1954L27.6719 27.6564H25.9062C23.9531 27.6564 23.3203 27.5704 22.414 27.1954C21.4453 26.7892 20.1015 25.7189 19.8672 25.1798C19.4687 24.211 20.1406 23.2032 21.1875 23.2032C21.664 23.2032 21.9219 23.336 22.6172 23.9689C22.8359 24.1642 23.2031 24.4142 23.4375 24.5235C23.8594 24.7189 23.9062 24.7267 25.7812 24.7501L27.6953 24.7735L27.1719 24.2345C26.875 23.9298 26.625 23.6017 26.6015 23.4689C26.5703 23.3439 26.5312 23.1954 26.5156 23.1329C26.4453 22.922 26.7109 22.2267 26.9453 22.0001C27.1562 21.797 27.6406 21.5704 27.8906 21.5626C27.9531 21.5626 28.1484 21.6017 28.3203 21.6485Z" fill="white"/>
</svg>
