<svg width="24" height="24" viewBox="0 0 24 24" fill="none" xmlns="http://www.w3.org/2000/svg">
<path d="M12 1C6.26199 1 1.55599 5.394 1.04999 11H9.99999V8C9.99999 7.596 10.244 7.231 10.617 7.076C10.991 6.921 11.421 7.007 11.707 7.293L15.707 11.293C16.098 11.684 16.098 12.316 15.707 12.707L11.707 16.707C11.421 16.993 10.991 17.079 10.617 16.924C10.244 16.769 9.99999 16.404 9.99999 16V13H1.04999C1.55599 18.606 6.26199 23 12 23C18.075 23 23 18.075 23 12C23 5.925 18.075 1 12 1Z" fill="#FF473D"/>
</svg>
