<svg width="36" height="36" viewBox="0 0 36 36" fill="none" xmlns="http://www.w3.org/2000/svg">
<path d="M18 2C14.8355 2 11.7421 2.93838 9.11088 4.69649C6.4797 6.45459 4.42894 8.95345 3.21793 11.8771C2.00693 14.8007 1.69008 18.0177 2.30744 21.1214C2.92481 24.2251 4.44866 27.0761 6.6863 29.3137C8.92394 31.5513 11.7749 33.0752 14.8786 33.6926C17.9823 34.3099 21.1993 33.9931 24.1229 32.7821C27.0466 31.5711 29.5454 29.5203 31.3035 26.8891C33.0616 24.2579 34 21.1645 34 18C34 13.7565 32.3143 9.68687 29.3137 6.68629C26.3131 3.68571 22.2435 2 18 2V2ZM18 32C15.2311 32 12.5243 31.1789 10.222 29.6406C7.91974 28.1022 6.12532 25.9157 5.06569 23.3576C4.00607 20.7994 3.72882 17.9845 4.26901 15.2687C4.80921 12.553 6.14258 10.0584 8.10051 8.1005C10.0584 6.14257 12.553 4.8092 15.2687 4.26901C17.9845 3.72881 20.7994 4.00606 23.3576 5.06569C25.9157 6.12531 28.1022 7.91973 29.6406 10.222C31.1789 12.5243 32 15.2311 32 18C32 21.713 30.525 25.274 27.8995 27.8995C25.274 30.525 21.713 32 18 32Z" fill="#4893D8"/>
<path d="M28 12.1C27.8126 11.9137 27.5592 11.8092 27.295 11.8092C27.0308 11.8092 26.7774 11.9137 26.59 12.1L15.49 23.15L9.49 17.15C9.307 16.9524 9.053 16.8356 8.78389 16.8253C8.51477 16.815 8.25258 16.912 8.055 17.095C7.85741 17.278 7.74061 17.532 7.7303 17.8011C7.71998 18.0702 7.817 18.3324 8 18.53L15.49 26L28 13.52C28.0937 13.427 28.1681 13.3164 28.2189 13.1946C28.2697 13.0727 28.2958 12.942 28.2958 12.81C28.2958 12.678 28.2697 12.5473 28.2189 12.4254C28.1681 12.3036 28.0937 12.193 28 12.1Z" fill="#4893D8"/>
</svg>
